<svg width="640" height="352" viewBox="0 0 640 352" fill="none" xmlns="http://www.w3.org/2000/svg">
  <rect width="640" height="352" rx="24" fill="#C7A484"/>
  <rect width="640" height="352" rx="24" fill="url(#bg)"/>
  <rect x="0" y="0" width="640" height="352" fill="url(#grain)" opacity="0.14"/>
  <rect x="374" y="54" width="4" height="228" rx="2" fill="#1E1E1E" opacity="0.92"/>
  <rect x="414" y="54" width="4" height="228" rx="2" fill="#1E1E1E" opacity="0.92"/>
  <rect x="454" y="54" width="4" height="228" rx="2" fill="#1E1E1E" opacity="0.92"/>
  <rect x="494" y="54" width="4" height="228" rx="2" fill="#1E1E1E" opacity="0.92"/>
  <circle cx="548" cy="70" r="18" fill="#1E1E1E"/>
  <circle cx="548" cy="118" r="18" fill="#1E1E1E"/>
  <circle cx="548" cy="166" r="18" fill="#1E1E1E"/>
  <circle cx="548" cy="214" r="18" fill="#1E1E1E"/>
  <circle cx="548" cy="262" r="18" fill="#1E1E1E"/>
  <circle cx="88" cy="174" r="44" fill="#BDBDBD"/>
  <circle cx="88" cy="174" r="32" fill="#8E8E8E"/>
  <rect x="76" y="86" width="24" height="62" rx="12" fill="#222222"/>
  <path d="M222 98H314V104C314 138.242 286.242 166 252 166H222V98Z" fill="#1F1F1F"/>
  <path d="M230 112L248 206H256L274 112" stroke="#1F1F1F" stroke-width="12" stroke-linecap="round"/>
  <path d="M318 102H344" stroke="#1F1F1F" stroke-width="6" stroke-linecap="round"/>
  <path d="M318 130H344" stroke="#1F1F1F" stroke-width="6" stroke-linecap="round"/>
  <path d="M318 158H344" stroke="#1F1F1F" stroke-width="6" stroke-linecap="round"/>
  <path d="M318 186H344" stroke="#1F1F1F" stroke-width="6" stroke-linecap="round"/>
  <path d="M318 214H344" stroke="#1F1F1F" stroke-width="6" stroke-linecap="round"/>
  <defs>
    <linearGradient id="bg" x1="0" y1="0" x2="640" y2="352" gradientUnits="userSpaceOnUse">
      <stop stop-color="#B28C6F"/>
      <stop offset="0.48" stop-color="#D1AF91"/>
      <stop offset="1" stop-color="#A77E62"/>
    </linearGradient>
    <pattern id="grain" width="24" height="24" patternUnits="userSpaceOnUse">
      <circle cx="2" cy="3" r="1" fill="#FFF8F1"/>
      <circle cx="18" cy="9" r="1" fill="#FFF8F1"/>
      <circle cx="11" cy="17" r="1" fill="#FFF8F1"/>
      <circle cx="20" cy="21" r="1" fill="#FFF8F1"/>
    </pattern>
  </defs>
</svg>
